<?xml version="1.0" encoding="UTF-8" standalone="no" ?>
<!DOCTYPE svg PUBLIC "-//W3C//DTD SVG 1.1//EN" "http://www.w3.org/Graphics/SVG/1.1/DTD/svg11.dtd">
<svg xmlns="http://www.w3.org/2000/svg" xmlns:xlink="http://www.w3.org/1999/xlink" version="1.1" width="40" height="40" viewBox="0 0 40 40" xml:space="preserve">
<desc>Created with Fabric.js 4.2.0</desc>
<defs>
</defs>
<g transform="matrix(1 0 0 1 540 540)" id="c8415831-83ef-4199-9b73-c2bd2af84565"  >
</g>
<g transform="matrix(1 0 0 1 540 540)" id="bf68f97a-b98b-4713-9fa3-2724a08286de"  >
<rect style="stroke: none; stroke-width: 1; stroke-dasharray: none; stroke-linecap: butt; stroke-dashoffset: 0; stroke-linejoin: miter; stroke-miterlimit: 4; fill: rgb(255,255,255); fill-rule: nonzero; opacity: 1;" vector-effect="non-scaling-stroke"  x="-540" y="-540" rx="0" ry="0" width="1080" height="1080" />
</g>
<g transform="matrix(0.21 0 0 0.21 20 20)" id="89a1e4c8-ea6a-4ac5-8f5e-d7a16bb700c3"  >
<path style="stroke: rgb(0,0,0); stroke-width: 0; stroke-dasharray: none; stroke-linecap: butt; stroke-dashoffset: 0; stroke-linejoin: miter; stroke-miterlimit: 4; fill: rgb(101,101,101); fill-rule: nonzero; opacity: 1;" vector-effect="non-scaling-stroke"  transform=" translate(-50, -50)" d="M 75.273 39.302 C 77.09599999999999 38.496 81.551 36.296 83.91 33.185 C 86.916 29.268 86.701 27.926000000000002 86.701 27.926000000000002 L 76.34599999999999 29.804000000000002 L 73.61099999999999 27.497000000000003 L 74.36099999999999 25.297000000000004 L 84.23599999999999 23.258000000000003 C 84.23599999999999 23.258000000000003 80.21 19.930000000000003 75.59599999999999 19.072000000000003 C 71.24799999999999 18.213 65.66899999999998 19.179000000000002 63.52099999999999 23.847 L 63.52099999999999 23.794 C 63.52099999999999 23.794 62.448999999999984 26.047 62.289999999999985 27.55 C 62.127999999999986 29 61.37699999999999 32.166 59.978999999999985 34.688 C 58.79999999999998 36.78 57.512999999999984 39.195 54.292999999999985 42.359 L 53.43499999999999 41.501000000000005 L 53.057999999999986 41.82300000000001 L 42.111 30.503 C 39.214999999999996 21.112000000000002 53.327999999999996 23.688 59.39 24.44 C 44.688 10.328000000000001 28.858 17.035 21.024 33.293 C 19.092000000000002 35.653999999999996 14.907 33.775 12.546000000000001 38.66 C 13.886000000000001 42.416 19.681 46.117 22.955000000000002 47.297999999999995 C 27.087000000000003 44.882 26.175 40.483 27.194000000000003 37.318 C 30.307000000000002 34.741 32.775000000000006 35.601 35.725 37.693 L 47.423 47.190999999999995 L 47.101 47.513 L 47.637 48.103 C 39.052 55.187 22.955000000000002 68.226 21.077 69.727 C 18.770000000000003 71.60600000000001 14.745000000000001 75.14800000000001 19.145000000000003 79.654 C 23.598000000000003 84.161 27.783 81.372 29.125000000000004 80.03 C 30.092000000000002 79.119 44.955000000000005 64.792 54.397000000000006 55.775999999999996 L 78.543 83.25 L 87.44900000000001 74.664 L 61.376 49.229 C 61.698 48.907 61.964 48.638 62.071 48.586 C 63.361 47.512 65.454 45.044 70.925 43.434 L 76.937 44.186 L 77.044 43.702 L 75.273 39.302 z" stroke-linecap="round" />
</g>
</svg>